<mxfile host="65bd71144e">
    <diagram id="Hd27g_jvee5qx3AAk5sy" name="Contexto">
        <mxGraphModel dx="1867" dy="1161" grid="1" gridSize="10" guides="1" tooltips="1" connect="1" arrows="1" fold="1" page="1" pageScale="1" pageWidth="827" pageHeight="1169" math="0" shadow="0">
            <root>
                <mxCell id="0"/>
                <mxCell id="1" parent="0"/>
                <mxCell id="WNoFTG88pWFQLtMIPWGj-10" style="edgeStyle=none;html=1;" edge="1" parent="1" source="WNoFTG88pWFQLtMIPWGj-1" target="WNoFTG88pWFQLtMIPWGj-4">
                    <mxGeometry relative="1" as="geometry"/>
                </mxCell>
                <mxCell id="WNoFTG88pWFQLtMIPWGj-11" value="Usa" style="edgeLabel;html=1;align=center;verticalAlign=middle;resizable=0;points=[];" vertex="1" connectable="0" parent="WNoFTG88pWFQLtMIPWGj-10">
                    <mxGeometry x="-0.3789" y="3" relative="1" as="geometry">
                        <mxPoint as="offset"/>
                    </mxGeometry>
                </mxCell>
                <object placeholders="1" c4Name="User Client" c4Type="User" c4Description="Pessoa que realiza as compras pela plataforma." label="&lt;font style=&quot;font-size: 16px&quot;&gt;&lt;b&gt;%c4Name%&lt;/b&gt;&lt;/font&gt;&lt;div&gt;[%c4Type%]&lt;/div&gt;&lt;br&gt;&lt;div&gt;&lt;font style=&quot;font-size: 11px&quot;&gt;&lt;font color=&quot;#cccccc&quot;&gt;%c4Description%&lt;/font&gt;&lt;/div&gt;" id="WNoFTG88pWFQLtMIPWGj-1">
                    <mxCell style="html=1;fontSize=11;dashed=0;whitespace=wrap;fillColor=#083F75;strokeColor=#06315C;fontColor=#ffffff;shape=mxgraph.c4.person2;align=center;metaEdit=1;points=[[0.5,0,0],[1,0.5,0],[1,0.75,0],[0.75,1,0],[0.5,1,0],[0.25,1,0],[0,0.75,0],[0,0.5,0]];resizable=0;" parent="1" vertex="1">
                        <mxGeometry x="30" y="30" width="200" height="180" as="geometry"/>
                    </mxCell>
                </object>
                <mxCell id="WNoFTG88pWFQLtMIPWGj-15" style="edgeStyle=none;html=1;" edge="1" parent="1" source="WNoFTG88pWFQLtMIPWGj-3" target="WNoFTG88pWFQLtMIPWGj-6">
                    <mxGeometry relative="1" as="geometry"/>
                </mxCell>
                <object placeholders="1" c4Name="Gateaway.API" c4Type="Intern API" c4Description="Sistema de autenticação de usuários. " label="&lt;font style=&quot;font-size: 16px&quot;&gt;&lt;b&gt;%c4Name%&lt;/b&gt;&lt;/font&gt;&lt;div&gt;[%c4Type%]&lt;/div&gt;&lt;br&gt;&lt;div&gt;&lt;font style=&quot;font-size: 11px&quot;&gt;&lt;font color=&quot;#cccccc&quot;&gt;%c4Description%&lt;/font&gt;&lt;/div&gt;" id="WNoFTG88pWFQLtMIPWGj-3">
                    <mxCell style="rounded=1;whiteSpace=wrap;html=1;labelBackgroundColor=none;fillColor=#1061B0;fontColor=#ffffff;align=center;arcSize=10;strokeColor=#0D5091;metaEdit=1;resizable=0;points=[[0.25,0,0],[0.5,0,0],[0.75,0,0],[1,0.25,0],[1,0.5,0],[1,0.75,0],[0.75,1,0],[0.5,1,0],[0.25,1,0],[0,0.75,0],[0,0.5,0],[0,0.25,0]];" parent="1" vertex="1">
                        <mxGeometry x="460" y="330" width="240" height="120" as="geometry"/>
                    </mxCell>
                </object>
                <mxCell id="WNoFTG88pWFQLtMIPWGj-12" style="edgeStyle=none;html=1;exitX=0.5;exitY=1;exitDx=0;exitDy=0;exitPerimeter=0;" edge="1" parent="1" source="WNoFTG88pWFQLtMIPWGj-4" target="WNoFTG88pWFQLtMIPWGj-3">
                    <mxGeometry relative="1" as="geometry"/>
                </mxCell>
                <mxCell id="WNoFTG88pWFQLtMIPWGj-14" value="Http(Json) para login&amp;nbsp;" style="edgeLabel;html=1;align=center;verticalAlign=middle;resizable=0;points=[];" vertex="1" connectable="0" parent="WNoFTG88pWFQLtMIPWGj-12">
                    <mxGeometry x="-0.1261" y="-1" relative="1" as="geometry">
                        <mxPoint as="offset"/>
                    </mxGeometry>
                </mxCell>
                <object placeholders="1" c4Type="App" c4Container="Site/App" c4Technology="Angular" c4Description="Sistema visual responsável por exibir as informações pro usuário final." label="&lt;font style=&quot;font-size: 16px&quot;&gt;&lt;b&gt;%c4Type%&lt;/font&gt;&lt;div&gt;[%c4Container%:&amp;nbsp;%c4Technology%]&lt;/div&gt;&lt;br&gt;&lt;div&gt;&lt;font style=&quot;font-size: 11px&quot;&gt;&lt;font color=&quot;#E6E6E6&quot;&gt;%c4Description%&lt;/font&gt;&lt;/div&gt;" id="WNoFTG88pWFQLtMIPWGj-4">
                    <mxCell style="shape=mxgraph.c4.webBrowserContainer;whiteSpace=wrap;html=1;boundedLbl=1;rounded=0;labelBackgroundColor=none;fillColor=#118ACD;fontSize=12;fontColor=#ffffff;align=center;strokeColor=#0E7DAD;metaEdit=1;points=[[0.5,0,0],[1,0.25,0],[1,0.5,0],[1,0.75,0],[0.5,1,0],[0,0.75,0],[0,0.5,0],[0,0.25,0]];resizable=0;" parent="1" vertex="1">
                        <mxGeometry x="460" y="40" width="240" height="160" as="geometry"/>
                    </mxCell>
                </object>
                <mxCell id="WNoFTG88pWFQLtMIPWGj-20" style="edgeStyle=none;html=1;" edge="1" parent="1" source="WNoFTG88pWFQLtMIPWGj-5" target="WNoFTG88pWFQLtMIPWGj-19">
                    <mxGeometry relative="1" as="geometry"/>
                </mxCell>
                <object placeholders="1" c4Name="Products.API" c4Type="API Interna" c4Description="API que busca  que realiza ações sobre os produtos, exibe os produtos, etc." label="&lt;font style=&quot;font-size: 16px&quot;&gt;&lt;b&gt;%c4Name%&lt;/b&gt;&lt;/font&gt;&lt;div&gt;[%c4Type%]&lt;/div&gt;&lt;br&gt;&lt;div&gt;&lt;font style=&quot;font-size: 11px&quot;&gt;&lt;font color=&quot;#cccccc&quot;&gt;%c4Description%&lt;/font&gt;&lt;/div&gt;" id="WNoFTG88pWFQLtMIPWGj-5">
                    <mxCell style="rounded=1;whiteSpace=wrap;html=1;labelBackgroundColor=none;fillColor=#1061B0;fontColor=#ffffff;align=center;arcSize=10;strokeColor=#0D5091;metaEdit=1;resizable=0;points=[[0.25,0,0],[0.5,0,0],[0.75,0,0],[1,0.25,0],[1,0.5,0],[1,0.75,0],[0.75,1,0],[0.5,1,0],[0.25,1,0],[0,0.75,0],[0,0.5,0],[0,0.25,0]];" parent="1" vertex="1">
                        <mxGeometry x="460" y="810" width="240" height="120" as="geometry"/>
                    </mxCell>
                </object>
                <mxCell id="WNoFTG88pWFQLtMIPWGj-17" style="edgeStyle=none;html=1;" edge="1" parent="1" source="WNoFTG88pWFQLtMIPWGj-6" target="WNoFTG88pWFQLtMIPWGj-5">
                    <mxGeometry relative="1" as="geometry"/>
                </mxCell>
                <mxCell id="WNoFTG88pWFQLtMIPWGj-31" style="edgeStyle=orthogonalEdgeStyle;html=1;exitX=1;exitY=0.5;exitDx=0;exitDy=0;exitPerimeter=0;curved=1;" edge="1" parent="1" source="WNoFTG88pWFQLtMIPWGj-6" target="WNoFTG88pWFQLtMIPWGj-19">
                    <mxGeometry relative="1" as="geometry"/>
                </mxCell>
                <object placeholders="1" c4Name="Store.API" c4Type="API Interna" c4Description="Busca todas as lojas e realiza açõe sobre elas. " label="&lt;font style=&quot;font-size: 16px&quot;&gt;&lt;b&gt;%c4Name%&lt;/b&gt;&lt;/font&gt;&lt;div&gt;[%c4Type%]&lt;/div&gt;&lt;br&gt;&lt;div&gt;&lt;font style=&quot;font-size: 11px&quot;&gt;&lt;font color=&quot;#cccccc&quot;&gt;%c4Description%&lt;/font&gt;&lt;/div&gt;" id="WNoFTG88pWFQLtMIPWGj-6">
                    <mxCell style="rounded=1;whiteSpace=wrap;html=1;labelBackgroundColor=none;fillColor=#1061B0;fontColor=#ffffff;align=center;arcSize=10;strokeColor=#0D5091;metaEdit=1;resizable=0;points=[[0.25,0,0],[0.5,0,0],[0.75,0,0],[1,0.25,0],[1,0.5,0],[1,0.75,0],[0.75,1,0],[0.5,1,0],[0.25,1,0],[0,0.75,0],[0,0.5,0],[0,0.25,0]];" parent="1" vertex="1">
                        <mxGeometry x="460" y="570" width="240" height="120" as="geometry"/>
                    </mxCell>
                </object>
                <mxCell id="WNoFTG88pWFQLtMIPWGj-35" style="edgeStyle=entityRelationEdgeStyle;html=1;" edge="1" parent="1" source="WNoFTG88pWFQLtMIPWGj-7" target="WNoFTG88pWFQLtMIPWGj-8">
                    <mxGeometry relative="1" as="geometry"/>
                </mxCell>
                <object placeholders="1" c4Name="Stock.API" c4Type="Intern API" c4Description="Controla todo o estoque das lojas" label="&lt;font style=&quot;font-size: 16px&quot;&gt;&lt;b&gt;%c4Name%&lt;/b&gt;&lt;/font&gt;&lt;div&gt;[%c4Type%]&lt;/div&gt;&lt;br&gt;&lt;div&gt;&lt;font style=&quot;font-size: 11px&quot;&gt;&lt;font color=&quot;#cccccc&quot;&gt;%c4Description%&lt;/font&gt;&lt;/div&gt;" id="WNoFTG88pWFQLtMIPWGj-7">
                    <mxCell style="rounded=1;whiteSpace=wrap;html=1;labelBackgroundColor=none;fillColor=#1061B0;fontColor=#ffffff;align=center;arcSize=10;strokeColor=#0D5091;metaEdit=1;resizable=0;points=[[0.25,0,0],[0.5,0,0],[0.75,0,0],[1,0.25,0],[1,0.5,0],[1,0.75,0],[0.75,1,0],[0.5,1,0],[0.25,1,0],[0,0.75,0],[0,0.5,0],[0,0.25,0]];" parent="1" vertex="1">
                        <mxGeometry x="1470" y="430" width="240" height="120" as="geometry"/>
                    </mxCell>
                </object>
                <object placeholders="1" c4Name="Notification.API" c4Type="Intern API" c4Description="Controla todo o status de pagamento dos pedisos realizados." label="&lt;font style=&quot;font-size: 16px&quot;&gt;&lt;b&gt;%c4Name%&lt;/b&gt;&lt;/font&gt;&lt;div&gt;[%c4Type%]&lt;/div&gt;&lt;br&gt;&lt;div&gt;&lt;font style=&quot;font-size: 11px&quot;&gt;&lt;font color=&quot;#cccccc&quot;&gt;%c4Description%&lt;/font&gt;&lt;/div&gt;" id="WNoFTG88pWFQLtMIPWGj-8">
                    <mxCell style="rounded=1;whiteSpace=wrap;html=1;labelBackgroundColor=none;fillColor=#1061B0;fontColor=#ffffff;align=center;arcSize=10;strokeColor=#0D5091;metaEdit=1;resizable=0;points=[[0.25,0,0],[0.5,0,0],[0.75,0,0],[1,0.25,0],[1,0.5,0],[1,0.75,0],[0.75,1,0],[0.5,1,0],[0.25,1,0],[0,0.75,0],[0,0.5,0],[0,0.25,0]];" parent="1" vertex="1">
                        <mxGeometry x="990" y="430" width="240" height="120" as="geometry"/>
                    </mxCell>
                </object>
                <object placeholders="1" c4Name="Payment.API" c4Type="Intern API" c4Description="Controla todo o status de pagamento dos pedisos realizados." label="&lt;font style=&quot;font-size: 16px&quot;&gt;&lt;b&gt;%c4Name%&lt;/b&gt;&lt;/font&gt;&lt;div&gt;[%c4Type%]&lt;/div&gt;&lt;br&gt;&lt;div&gt;&lt;font style=&quot;font-size: 11px&quot;&gt;&lt;font color=&quot;#cccccc&quot;&gt;%c4Description%&lt;/font&gt;&lt;/div&gt;" id="WNoFTG88pWFQLtMIPWGj-9">
                    <mxCell style="rounded=1;whiteSpace=wrap;html=1;labelBackgroundColor=none;fillColor=#1061B0;fontColor=#ffffff;align=center;arcSize=10;strokeColor=#0D5091;metaEdit=1;resizable=0;points=[[0.25,0,0],[0.5,0,0],[0.75,0,0],[1,0.25,0],[1,0.5,0],[1,0.75,0],[0.75,1,0],[0.5,1,0],[0.25,1,0],[0,0.75,0],[0,0.5,0],[0,0.25,0]];" parent="1" vertex="1">
                        <mxGeometry x="1470" y="810" width="240" height="120" as="geometry"/>
                    </mxCell>
                </object>
                <mxCell id="WNoFTG88pWFQLtMIPWGj-16" value="Exibe Loja&amp;nbsp;&lt;br&gt;Pesquisa Loja&amp;nbsp;&lt;br&gt;Avalia Loja&amp;nbsp;" style="text;html=1;align=center;verticalAlign=middle;resizable=0;points=[];autosize=1;strokeColor=none;fillColor=none;" vertex="1" parent="1">
                    <mxGeometry x="490" y="490" width="90" height="50" as="geometry"/>
                </mxCell>
                <mxCell id="WNoFTG88pWFQLtMIPWGj-18" value="Exibe proutos Loja&amp;nbsp;&lt;br&gt;Seleciona Pedidos Desejados" style="text;html=1;align=center;verticalAlign=middle;resizable=0;points=[];autosize=1;strokeColor=none;fillColor=none;" vertex="1" parent="1">
                    <mxGeometry x="410" y="730" width="180" height="30" as="geometry"/>
                </mxCell>
                <mxCell id="WNoFTG88pWFQLtMIPWGj-24" style="edgeStyle=none;html=1;exitX=0.5;exitY=0;exitDx=0;exitDy=0;exitPerimeter=0;" edge="1" parent="1" source="WNoFTG88pWFQLtMIPWGj-19" target="WNoFTG88pWFQLtMIPWGj-8">
                    <mxGeometry relative="1" as="geometry">
                        <Array as="points">
                            <mxPoint x="1110" y="630"/>
                        </Array>
                    </mxGeometry>
                </mxCell>
                <mxCell id="WNoFTG88pWFQLtMIPWGj-26" style="edgeStyle=none;html=1;" edge="1" parent="1" source="WNoFTG88pWFQLtMIPWGj-19" target="WNoFTG88pWFQLtMIPWGj-9">
                    <mxGeometry relative="1" as="geometry"/>
                </mxCell>
                <mxCell id="WNoFTG88pWFQLtMIPWGj-37" style="edgeStyle=entityRelationEdgeStyle;html=1;entryX=0.16;entryY=0.654;entryDx=0;entryDy=0;entryPerimeter=0;" edge="1" parent="1" source="WNoFTG88pWFQLtMIPWGj-19" target="WNoFTG88pWFQLtMIPWGj-34">
                    <mxGeometry relative="1" as="geometry"/>
                </mxCell>
                <object placeholders="1" c4Name="Order.API" c4Type="Intern API" c4Description="Realiza os pedidos dos clientes e controla os status." label="&lt;font style=&quot;font-size: 16px&quot;&gt;&lt;b&gt;%c4Name%&lt;/b&gt;&lt;/font&gt;&lt;div&gt;[%c4Type%]&lt;/div&gt;&lt;br&gt;&lt;div&gt;&lt;font style=&quot;font-size: 11px&quot;&gt;&lt;font color=&quot;#cccccc&quot;&gt;%c4Description%&lt;/font&gt;&lt;/div&gt;" id="WNoFTG88pWFQLtMIPWGj-19">
                    <mxCell style="rounded=1;whiteSpace=wrap;html=1;labelBackgroundColor=none;fillColor=#1061B0;fontColor=#ffffff;align=center;arcSize=10;strokeColor=#0D5091;metaEdit=1;resizable=0;points=[[0.25,0,0],[0.5,0,0],[0.75,0,0],[1,0.25,0],[1,0.5,0],[1,0.75,0],[0.75,1,0],[0.5,1,0],[0.25,1,0],[0,0.75,0],[0,0.5,0],[0,0.25,0]];" vertex="1" parent="1">
                        <mxGeometry x="990" y="810" width="240" height="120" as="geometry"/>
                    </mxCell>
                </object>
                <mxCell id="WNoFTG88pWFQLtMIPWGj-21" value="Adiciona produtos/itens nos pedidos" style="text;html=1;align=center;verticalAlign=middle;resizable=0;points=[];autosize=1;strokeColor=none;fillColor=none;" vertex="1" parent="1">
                    <mxGeometry x="720" y="830" width="210" height="20" as="geometry"/>
                </mxCell>
                <mxCell id="WNoFTG88pWFQLtMIPWGj-22" value="Realiza Pedriso" style="text;html=1;align=center;verticalAlign=middle;resizable=0;points=[];autosize=1;strokeColor=none;fillColor=none;" vertex="1" parent="1">
                    <mxGeometry x="810" y="850" width="100" height="20" as="geometry"/>
                </mxCell>
                <mxCell id="WNoFTG88pWFQLtMIPWGj-23" value="Cancela Pedido&amp;nbsp;" style="text;html=1;align=center;verticalAlign=middle;resizable=0;points=[];autosize=1;strokeColor=none;fillColor=none;" vertex="1" parent="1">
                    <mxGeometry x="727" y="890" width="100" height="20" as="geometry"/>
                </mxCell>
                <mxCell id="WNoFTG88pWFQLtMIPWGj-25" value="Envia notificação para a loja sobre pedido" style="text;html=1;align=center;verticalAlign=middle;resizable=0;points=[];autosize=1;strokeColor=none;fillColor=none;" vertex="1" parent="1">
                    <mxGeometry x="1001" y="585" width="240" height="20" as="geometry"/>
                </mxCell>
                <mxCell id="WNoFTG88pWFQLtMIPWGj-27" value="Realiza Pagamento" style="text;html=1;align=center;verticalAlign=middle;resizable=0;points=[];autosize=1;strokeColor=none;fillColor=none;" vertex="1" parent="1">
                    <mxGeometry x="1270" y="840" width="120" height="20" as="geometry"/>
                </mxCell>
                <mxCell id="WNoFTG88pWFQLtMIPWGj-32" value="Aceita ou rejeita Pedido&amp;nbsp;" style="text;html=1;align=center;verticalAlign=middle;resizable=0;points=[];autosize=1;strokeColor=none;fillColor=none;" vertex="1" parent="1">
                    <mxGeometry x="760" y="650" width="150" height="20" as="geometry"/>
                </mxCell>
                <mxCell id="WNoFTG88pWFQLtMIPWGj-40" style="edgeStyle=entityRelationEdgeStyle;html=1;exitX=1;exitY=0;exitDx=0;exitDy=0;entryX=0.5;entryY=1;entryDx=0;entryDy=0;entryPerimeter=0;" edge="1" parent="1" source="WNoFTG88pWFQLtMIPWGj-34" target="WNoFTG88pWFQLtMIPWGj-7">
                    <mxGeometry relative="1" as="geometry"/>
                </mxCell>
                <mxCell id="WNoFTG88pWFQLtMIPWGj-34" value="Pedido Aceito?" style="rhombus;whiteSpace=wrap;html=1;" vertex="1" parent="1">
                    <mxGeometry x="1340" y="670" width="80" height="80" as="geometry"/>
                </mxCell>
                <mxCell id="WNoFTG88pWFQLtMIPWGj-36" value="Informa Pedido Aceito" style="text;html=1;align=center;verticalAlign=middle;resizable=0;points=[];autosize=1;strokeColor=none;fillColor=none;" vertex="1" parent="1">
                    <mxGeometry x="1274" y="470" width="130" height="20" as="geometry"/>
                </mxCell>
            </root>
        </mxGraphModel>
    </diagram>
    <diagram id="KebW3jKUk0q9kCDE3Ljx" name="Componente Usuario">
        <mxGraphModel grid="1" gridSize="10" guides="1" tooltips="1" connect="1" arrows="1" page="1" fold="1" pageScale="1" pageWidth="827" pageHeight="1169" math="0" shadow="0">
            <root>
                <mxCell id="ankfrMlf9Y9KeuKdAOuS-0"/>
                <mxCell id="ankfrMlf9Y9KeuKdAOuS-1" parent="ankfrMlf9Y9KeuKdAOuS-0"/>
            </root>
        </mxGraphModel>
    </diagram>
    <diagram id="TUAh94pikvpmpqwGQKTv" name="Componente Loja">
        <mxGraphModel grid="1" gridSize="10" guides="1" tooltips="1" connect="1" arrows="1" page="1" fold="1" pageScale="1" pageWidth="827" pageHeight="1169" math="0" shadow="0">
            <root>
                <mxCell id="Q6ycL04EQ1PTHXMoSVwh-0"/>
                <mxCell id="Q6ycL04EQ1PTHXMoSVwh-1" parent="Q6ycL04EQ1PTHXMoSVwh-0"/>
            </root>
        </mxGraphModel>
    </diagram>
    <diagram id="eoN2eMD3KtgiQRMvtjD0" name="Componente Motoboy">
        <mxGraphModel grid="1" gridSize="10" guides="1" tooltips="1" connect="1" arrows="1" page="1" fold="1" pageScale="1" pageWidth="827" pageHeight="1169" math="0" shadow="0">
            <root>
                <mxCell id="1sv-BeH4czNMfAsBOYQu-0"/>
                <mxCell id="1sv-BeH4czNMfAsBOYQu-1" parent="1sv-BeH4czNMfAsBOYQu-0"/>
            </root>
        </mxGraphModel>
    </diagram>
    <diagram id="xdJd8JRUTnAsIOGGZLlP" name="Page-5">
        <mxGraphModel grid="1" gridSize="10" guides="1" tooltips="1" connect="1" arrows="1" page="1" fold="1" pageScale="1" pageWidth="827" pageHeight="1169" math="0" shadow="0">
            <root>
                <mxCell id="Lm1RG_t4IE9unwQfQkn8-0"/>
                <mxCell id="Lm1RG_t4IE9unwQfQkn8-1" parent="Lm1RG_t4IE9unwQfQkn8-0"/>
            </root>
        </mxGraphModel>
    </diagram>
</mxfile>